<?xml version="1.0" standalone="no"?><!DOCTYPE svg PUBLIC "-//W3C//DTD SVG 1.1//EN" "http://www.w3.org/Graphics/SVG/1.1/DTD/svg11.dtd"><svg t="1516785564897" class="icon" style="" viewBox="0 0 1024 1024" version="1.1" xmlns="http://www.w3.org/2000/svg" p-id="3456" xmlns:xlink="http://www.w3.org/1999/xlink" width="32" height="32"><defs><style type="text/css"></style></defs><path d="M842.364 157.541c-78.893 67.961-207.219 68.014-286.237 0-127.639-109.931-335.17-109.931-462.747 0-11.734 10.063-18.288 23.783-18.288 38.043v699.514c0 29.702 27.9 53.809 62.415 53.809s62.415-24.106 62.415-53.809v-244.938c79.329-53.701 194.798-49.127 267.949 13.937 127.639 109.931 335.233 109.931 462.747 0 11.734-10.116 18.288-23.783 18.288-38.043v-430.47c0-21.793-15.229-41.379-38.51-49.719-23.344-8.34-50.181-3.713-68.032 11.677z" p-id="3457" fill="#ddd"></path></svg>